<mxfile host="app.diagrams.net" modified="2023-06-05T07:13:48.243Z" agent="Mozilla/5.0 (Macintosh; Intel Mac OS X 10_15_7) AppleWebKit/605.1.15 (KHTML, like Gecko) Version/16.4 Safari/605.1.15" etag="6KC48FJS6S9yOn1i5_6P" version="21.3.7" type="device">
  <diagram name="Page-1" id="11-zjs6EYi8BLVkxDJ91">
    <mxGraphModel dx="956" dy="456" grid="1" gridSize="10" guides="1" tooltips="1" connect="1" arrows="1" fold="1" page="1" pageScale="1" pageWidth="827" pageHeight="1169" math="0" shadow="0">
      <root>
        <mxCell id="0" />
        <mxCell id="1" parent="0" />
        <mxCell id="FpbQsyOUVCays7RUPi0c-17" value="" style="rounded=1;whiteSpace=wrap;html=1;fillColor=none;dashed=1;" vertex="1" parent="1">
          <mxGeometry x="480" y="40" width="285" height="290" as="geometry" />
        </mxCell>
        <mxCell id="FpbQsyOUVCays7RUPi0c-19" value="" style="rounded=1;whiteSpace=wrap;html=1;fillColor=none;dashed=1;" vertex="1" parent="1">
          <mxGeometry x="200" y="20" width="590" height="330" as="geometry" />
        </mxCell>
        <mxCell id="FpbQsyOUVCays7RUPi0c-1" value="Kubernetes API Server" style="rounded=0;whiteSpace=wrap;html=1;" vertex="1" parent="1">
          <mxGeometry x="260" y="83" width="120" height="60" as="geometry" />
        </mxCell>
        <mxCell id="FpbQsyOUVCays7RUPi0c-23" style="edgeStyle=orthogonalEdgeStyle;rounded=0;orthogonalLoop=1;jettySize=auto;html=1;entryX=0;entryY=0.5;entryDx=0;entryDy=0;" edge="1" parent="1" source="FpbQsyOUVCays7RUPi0c-2" target="FpbQsyOUVCays7RUPi0c-4">
          <mxGeometry relative="1" as="geometry">
            <Array as="points">
              <mxPoint x="410" y="220" />
              <mxPoint x="410" y="175" />
            </Array>
          </mxGeometry>
        </mxCell>
        <mxCell id="FpbQsyOUVCays7RUPi0c-28" value="invoke&lt;br&gt;function" style="edgeLabel;html=1;align=center;verticalAlign=middle;resizable=0;points=[];" vertex="1" connectable="0" parent="FpbQsyOUVCays7RUPi0c-23">
          <mxGeometry x="0.2108" y="-1" relative="1" as="geometry">
            <mxPoint as="offset" />
          </mxGeometry>
        </mxCell>
        <mxCell id="FpbQsyOUVCays7RUPi0c-2" value="Kourier Ingress Service" style="rounded=0;whiteSpace=wrap;html=1;" vertex="1" parent="1">
          <mxGeometry x="260" y="190" width="120" height="60" as="geometry" />
        </mxCell>
        <mxCell id="FpbQsyOUVCays7RUPi0c-15" style="edgeStyle=orthogonalEdgeStyle;rounded=0;orthogonalLoop=1;jettySize=auto;html=1;exitX=0.5;exitY=1;exitDx=0;exitDy=0;entryX=0.5;entryY=0;entryDx=0;entryDy=0;" edge="1" parent="1" source="FpbQsyOUVCays7RUPi0c-3" target="FpbQsyOUVCays7RUPi0c-4">
          <mxGeometry relative="1" as="geometry" />
        </mxCell>
        <mxCell id="FpbQsyOUVCays7RUPi0c-16" style="edgeStyle=orthogonalEdgeStyle;rounded=0;orthogonalLoop=1;jettySize=auto;html=1;exitX=0.5;exitY=1;exitDx=0;exitDy=0;entryX=0.5;entryY=0;entryDx=0;entryDy=0;" edge="1" parent="1" source="FpbQsyOUVCays7RUPi0c-3" target="FpbQsyOUVCays7RUPi0c-8">
          <mxGeometry relative="1" as="geometry" />
        </mxCell>
        <mxCell id="FpbQsyOUVCays7RUPi0c-3" value="Function" style="rounded=0;whiteSpace=wrap;html=1;" vertex="1" parent="1">
          <mxGeometry x="520" y="90" width="160" height="30" as="geometry" />
        </mxCell>
        <mxCell id="FpbQsyOUVCays7RUPi0c-14" style="edgeStyle=orthogonalEdgeStyle;rounded=0;orthogonalLoop=1;jettySize=auto;html=1;exitX=0.5;exitY=1;exitDx=0;exitDy=0;entryX=0;entryY=0.5;entryDx=0;entryDy=0;" edge="1" parent="1" source="FpbQsyOUVCays7RUPi0c-4" target="FpbQsyOUVCays7RUPi0c-5">
          <mxGeometry relative="1" as="geometry" />
        </mxCell>
        <mxCell id="FpbQsyOUVCays7RUPi0c-4" value="Route" style="rounded=0;whiteSpace=wrap;html=1;" vertex="1" parent="1">
          <mxGeometry x="520" y="160" width="70" height="30" as="geometry" />
        </mxCell>
        <mxCell id="FpbQsyOUVCays7RUPi0c-5" value="Revision 0" style="rounded=0;whiteSpace=wrap;html=1;" vertex="1" parent="1">
          <mxGeometry x="620" y="200" width="70" height="30" as="geometry" />
        </mxCell>
        <mxCell id="FpbQsyOUVCays7RUPi0c-6" value="Revision 1" style="rounded=0;whiteSpace=wrap;html=1;" vertex="1" parent="1">
          <mxGeometry x="620" y="240" width="70" height="30" as="geometry" />
        </mxCell>
        <mxCell id="FpbQsyOUVCays7RUPi0c-7" value="Revision N" style="rounded=0;whiteSpace=wrap;html=1;" vertex="1" parent="1">
          <mxGeometry x="620" y="280" width="70" height="30" as="geometry" />
        </mxCell>
        <mxCell id="FpbQsyOUVCays7RUPi0c-9" style="edgeStyle=orthogonalEdgeStyle;rounded=0;orthogonalLoop=1;jettySize=auto;html=1;exitX=0.75;exitY=1;exitDx=0;exitDy=0;entryX=1;entryY=0.5;entryDx=0;entryDy=0;" edge="1" parent="1" source="FpbQsyOUVCays7RUPi0c-8" target="FpbQsyOUVCays7RUPi0c-7">
          <mxGeometry relative="1" as="geometry" />
        </mxCell>
        <mxCell id="FpbQsyOUVCays7RUPi0c-11" style="edgeStyle=orthogonalEdgeStyle;rounded=0;orthogonalLoop=1;jettySize=auto;html=1;exitX=0.75;exitY=1;exitDx=0;exitDy=0;entryX=1;entryY=0.5;entryDx=0;entryDy=0;" edge="1" parent="1" source="FpbQsyOUVCays7RUPi0c-8" target="FpbQsyOUVCays7RUPi0c-5">
          <mxGeometry relative="1" as="geometry">
            <Array as="points">
              <mxPoint x="710" y="215" />
            </Array>
          </mxGeometry>
        </mxCell>
        <mxCell id="FpbQsyOUVCays7RUPi0c-12" style="edgeStyle=orthogonalEdgeStyle;rounded=0;orthogonalLoop=1;jettySize=auto;html=1;exitX=0.75;exitY=1;exitDx=0;exitDy=0;entryX=1;entryY=0.5;entryDx=0;entryDy=0;" edge="1" parent="1" source="FpbQsyOUVCays7RUPi0c-8" target="FpbQsyOUVCays7RUPi0c-6">
          <mxGeometry relative="1" as="geometry" />
        </mxCell>
        <mxCell id="FpbQsyOUVCays7RUPi0c-8" value="Configuration" style="rounded=0;whiteSpace=wrap;html=1;" vertex="1" parent="1">
          <mxGeometry x="620" y="160" width="120" height="30" as="geometry" />
        </mxCell>
        <mxCell id="FpbQsyOUVCays7RUPi0c-18" value="Knative Function" style="text;html=1;strokeColor=none;fillColor=none;align=center;verticalAlign=middle;whiteSpace=wrap;rounded=0;" vertex="1" parent="1">
          <mxGeometry x="500" y="40" width="100" height="30" as="geometry" />
        </mxCell>
        <mxCell id="FpbQsyOUVCays7RUPi0c-20" value="" style="endArrow=classic;html=1;rounded=0;entryX=0;entryY=0.25;entryDx=0;entryDy=0;exitX=1;exitY=0.5;exitDx=0;exitDy=0;" edge="1" parent="1" source="FpbQsyOUVCays7RUPi0c-1" target="FpbQsyOUVCays7RUPi0c-17">
          <mxGeometry width="50" height="50" relative="1" as="geometry">
            <mxPoint x="330" y="230" as="sourcePoint" />
            <mxPoint x="380" y="180" as="targetPoint" />
          </mxGeometry>
        </mxCell>
        <mxCell id="FpbQsyOUVCays7RUPi0c-21" value="manage&amp;nbsp;&lt;br&gt;function" style="edgeLabel;html=1;align=center;verticalAlign=middle;resizable=0;points=[];" vertex="1" connectable="0" parent="FpbQsyOUVCays7RUPi0c-20">
          <mxGeometry x="-0.0599" y="1" relative="1" as="geometry">
            <mxPoint as="offset" />
          </mxGeometry>
        </mxCell>
        <mxCell id="FpbQsyOUVCays7RUPi0c-24" value="" style="endArrow=classic;html=1;rounded=0;entryX=0;entryY=0.5;entryDx=0;entryDy=0;" edge="1" parent="1" target="FpbQsyOUVCays7RUPi0c-1">
          <mxGeometry width="50" height="50" relative="1" as="geometry">
            <mxPoint x="90" y="113" as="sourcePoint" />
            <mxPoint x="440" y="200" as="targetPoint" />
          </mxGeometry>
        </mxCell>
        <mxCell id="FpbQsyOUVCays7RUPi0c-25" value="manage&amp;nbsp;&lt;br&gt;functions" style="edgeLabel;html=1;align=center;verticalAlign=middle;resizable=0;points=[];" vertex="1" connectable="0" parent="FpbQsyOUVCays7RUPi0c-24">
          <mxGeometry x="-0.4588" y="2" relative="1" as="geometry">
            <mxPoint as="offset" />
          </mxGeometry>
        </mxCell>
        <mxCell id="FpbQsyOUVCays7RUPi0c-26" value="" style="endArrow=classic;html=1;rounded=0;entryX=0;entryY=0.5;entryDx=0;entryDy=0;" edge="1" parent="1" target="FpbQsyOUVCays7RUPi0c-2">
          <mxGeometry width="50" height="50" relative="1" as="geometry">
            <mxPoint x="90" y="220" as="sourcePoint" />
            <mxPoint x="440" y="200" as="targetPoint" />
          </mxGeometry>
        </mxCell>
        <mxCell id="FpbQsyOUVCays7RUPi0c-27" value="invoke&lt;br&gt;functions" style="edgeLabel;html=1;align=center;verticalAlign=middle;resizable=0;points=[];" vertex="1" connectable="0" parent="FpbQsyOUVCays7RUPi0c-26">
          <mxGeometry x="-0.3529" y="2" relative="1" as="geometry">
            <mxPoint as="offset" />
          </mxGeometry>
        </mxCell>
        <mxCell id="FpbQsyOUVCays7RUPi0c-29" value="Kubernetes" style="text;html=1;strokeColor=none;fillColor=none;align=center;verticalAlign=middle;whiteSpace=wrap;rounded=0;" vertex="1" parent="1">
          <mxGeometry x="240" y="20" width="100" height="30" as="geometry" />
        </mxCell>
      </root>
    </mxGraphModel>
  </diagram>
</mxfile>
